<?xml version="1.0" encoding="UTF-8"?>
<svg width="4000" height="3200" viewBox="0 0 4000 3200" xmlns="http://www.w3.org/2000/svg">
<defs>

        <g id="breaker-closed">
            <rect x="-8" y="-12" width="16" height="24" fill="white" stroke="black" stroke-width="1.5"/>
            <line x1="-6" y1="-8" x2="6" y2="8" stroke="black" stroke-width="2"/>
            <line x1="-6" y1="8" x2="6" y2="-8" stroke="black" stroke-width="2"/>
        </g>
    

        <g id="breaker-open">
            <rect x="-8" y="-12" width="16" height="24" fill="white" stroke="black" stroke-width="1.5"/>
            <line x1="0" y1="-8" x2="0" y2="-2" stroke="black" stroke-width="2"/>
            <line x1="0" y1="2" x2="0" y2="8" stroke="black" stroke-width="2"/>
            <circle cx="0" cy="0" r="2.5" fill="white" stroke="black" stroke-width="1.5"/>
        </g>
    

        <g id="transformer">
            <circle cx="-8" cy="0" r="10" fill="white" stroke="black" stroke-width="1.5"/>
            <circle cx="8" cy="0" r="10" fill="white" stroke="black" stroke-width="1.5"/>
            <line x1="-8" y1="-10" x2="-8" y2="-20" stroke="black" stroke-width="2"/>
            <line x1="8" y1="10" x2="8" y2="20" stroke="black" stroke-width="2"/>
        </g>
    

        <g id="generator">
            <circle cx="0" cy="0" r="30" fill="white" stroke="black" stroke-width="2"/>
            <text x="0" y="8" font-family="Arial" font-size="20" font-weight="bold" text-anchor="middle" fill="black">G</text>
        </g>
    

        <g id="connection-point">
            <circle cx="0" cy="0" r="3" fill="black"/>
        </g>
    

        <g id="fuse">
            <rect x="-6" y="-10" width="12" height="20" fill="white" stroke="black" stroke-width="1.5"/>
            <line x1="0" y1="-6" x2="0" y2="6" stroke="black" stroke-width="2"/>
            <circle cx="0" cy="0" r="3" fill="white" stroke="black" stroke-width="1.5"/>
        </g>
    

        <g id="disconnect-closed">
            <line x1="0" y1="-12" x2="0" y2="12" stroke="black" stroke-width="2"/>
            <circle cx="0" cy="-12" r="2" fill="black"/>
            <circle cx="0" cy="12" r="2" fill="black"/>
        </g>
    

        <g id="disconnect-open">
            <line x1="0" y1="-12" x2="4" y2="0" stroke="black" stroke-width="2"/>
            <circle cx="0" cy="-12" r="2" fill="black"/>
            <circle cx="0" cy="12" r="2" fill="black"/>
        </g>
    
</defs>


    <style>
        /* Text Styles - SLD Standards v1.0 */
        .title { font: bold 18px Arial; fill: #000; }
        .subtitle { font: bold 14px Arial; fill: #000; }
        .equipment-label { font: bold 13px Arial; fill: #000; }
        .bus-label { font: bold 12px Arial; fill: #000; }
        .small-label { font: 10px Arial; fill: #000; }
        .rating { font: 10px Arial; fill: #333; }
        .annotation { font: 9px Arial; fill: #000; }
        .feeder-label { font: 8px Arial; fill: #666; }
        .note { font: italic 9px Arial; fill: #000; }

        /* Line Styles */
        .power-line { stroke: #000; stroke-width: 2; fill: none; }
        .bus { stroke: #000; stroke-width: 6; fill: none; }
        .control-line { stroke: #000; stroke-width: 1; stroke-dasharray: 5,5; fill: none; }

        /* Equipment Boxes - LIGHT BACKGROUNDS for readability */
        .mv-switchboard { fill: #E3F2FD; stroke: #000; stroke-width: 2; }
        .lv-switchboard { fill: #E8F5E9; stroke: #000; stroke-width: 2; }
        .generator-box { fill: #FFF3E0; stroke: #000; stroke-width: 2; }
        .transformer-box { fill: #FFFFFF; stroke: #000; stroke-width: 2; }
        .rmu-box { fill: #FFF9C4; stroke: #000; stroke-width: 2; }
        .ups-module { fill: #F3E5F5; stroke: #000; stroke-width: 1.5; }
        .dist-panel { fill: #E0F2F1; stroke: #000; stroke-width: 1; }

        /* Legacy aliases for backwards compatibility */
        .switchgear-box { fill: #E3F2FD; stroke: black; stroke-width: 2; }
        .ups-box { fill: #F3E5F5; stroke: black; stroke-width: 2; }

        /* Ring Bus Colors */
        .ring-bus-a { stroke: #E74C3C; stroke-width: 4; fill: none; }
        .ring-bus-b { stroke: #3498DB; stroke-width: 4; fill: none; }
    </style>
    

<style>
.ring-bus { stroke: #E74C3C; stroke-width: 4; fill: none; }
.ring-bus-b { stroke: #3498DB; stroke-width: 4; fill: none; }
.ups-module { fill: #FFF9E6; stroke: #000; stroke-width: 1.5; }
.dist-panel { fill: #E8F8F5; stroke: #000; stroke-width: 1; }
</style>

<!-- Title Block -->
<rect x="20" y="10" width="3960" height="90" fill="white" stroke="black" stroke-width="2"/>
<text x="2000" y="40" class="title" text-anchor="middle">SAGA PRYOR DATA CENTER - ELECTRICAL SINGLE LINE DIAGRAM</text>
<text x="2000" y="60" class="subtitle" text-anchor="middle">13.8kV Dual Ring MV Distribution - Detailed Breaker and Connection Layout</text>
<text x="2000" y="80" class="annotation" text-anchor="middle">From BOD: 6x4MW Gen | 8x3.5MVA TX | 6 RMUs | Dual Ring Topology</text>
<text x="3970" y="90" class="annotation" text-anchor="end">Rev A - 2025-11-02</text>


<!-- Generator 1 -->
<circle cx="750" cy="150" r="35" fill="white" stroke="black" stroke-width="2"/>
<text x="750" y="145" class="bus-label" text-anchor="middle">G</text>
<text x="750" y="160" class="annotation" text-anchor="middle" font-size="10">GEN-1</text>
<line x1="750" y1="185" x2="750" y2="220" class="power-line"/>
<use href="#breaker-closed" x="750" y="202"/>
<text x="765" y="208" class="annotation" font-size="8">CB-G1</text>
<line x1="750" y1="220" x2="750" y2="250" class="power-line"/>
<text x="750" y="390" class="rating" text-anchor="middle" font-size="9">4.0MW</text>

<!-- Generator 2 -->
<circle cx="1250" cy="150" r="35" fill="white" stroke="black" stroke-width="2"/>
<text x="1250" y="145" class="bus-label" text-anchor="middle">G</text>
<text x="1250" y="160" class="annotation" text-anchor="middle" font-size="10">GEN-2</text>
<line x1="1250" y1="185" x2="1250" y2="220" class="power-line"/>
<use href="#breaker-closed" x="1250" y="202"/>
<text x="1265" y="208" class="annotation" font-size="8">CB-G2</text>
<line x1="1250" y1="220" x2="1250" y2="250" class="power-line"/>
<text x="1250" y="390" class="rating" text-anchor="middle" font-size="9">4.0MW</text>

<!-- Generator 3 -->
<circle cx="1750" cy="150" r="35" fill="white" stroke="black" stroke-width="2"/>
<text x="1750" y="145" class="bus-label" text-anchor="middle">G</text>
<text x="1750" y="160" class="annotation" text-anchor="middle" font-size="10">GEN-3</text>
<line x1="1750" y1="185" x2="1750" y2="220" class="power-line"/>
<use href="#breaker-closed" x="1750" y="202"/>
<text x="1765" y="208" class="annotation" font-size="8">CB-G3</text>
<line x1="1750" y1="220" x2="1750" y2="250" class="power-line"/>
<text x="1750" y="390" class="rating" text-anchor="middle" font-size="9">4.0MW</text>

<!-- Generator 4 -->
<circle cx="2250" cy="150" r="35" fill="white" stroke="black" stroke-width="2"/>
<text x="2250" y="145" class="bus-label" text-anchor="middle">G</text>
<text x="2250" y="160" class="annotation" text-anchor="middle" font-size="10">GEN-4</text>
<line x1="2250" y1="185" x2="2250" y2="220" class="power-line"/>
<use href="#breaker-closed" x="2250" y="202"/>
<text x="2265" y="208" class="annotation" font-size="8">CB-G4</text>
<line x1="2250" y1="220" x2="2250" y2="250" class="power-line"/>
<text x="2250" y="390" class="rating" text-anchor="middle" font-size="9">4.0MW</text>

<!-- Generator 5 -->
<circle cx="2750" cy="150" r="35" fill="white" stroke="black" stroke-width="2"/>
<text x="2750" y="145" class="bus-label" text-anchor="middle">G</text>
<text x="2750" y="160" class="annotation" text-anchor="middle" font-size="10">GEN-5</text>
<line x1="2750" y1="185" x2="2750" y2="220" class="power-line"/>
<use href="#breaker-closed" x="2750" y="202"/>
<text x="2765" y="208" class="annotation" font-size="8">CB-G5</text>
<line x1="2750" y1="220" x2="2750" y2="250" class="power-line"/>
<text x="2750" y="390" class="rating" text-anchor="middle" font-size="9">4.0MW</text>

<!-- Generator 6 -->
<circle cx="3250" cy="150" r="35" fill="white" stroke="black" stroke-width="2"/>
<text x="3250" y="145" class="bus-label" text-anchor="middle">G</text>
<text x="3250" y="160" class="annotation" text-anchor="middle" font-size="10">GEN-6</text>
<line x1="3250" y1="185" x2="3250" y2="220" class="power-line"/>
<use href="#breaker-closed" x="3250" y="202"/>
<text x="3265" y="208" class="annotation" font-size="8">CB-G6</text>
<line x1="3250" y1="220" x2="3250" y2="250" class="power-line"/>
<text x="3250" y="390" class="rating" text-anchor="middle" font-size="9">4.0MW</text>

<!-- Generator Sync Bus -->
<rect x="650" y="250" width="2700" height="70" class="switchgear-box"/>
<line x1="670" y1="270" x2="3330" y2="270" class="bus"/>
<text x="2000" y="295" class="equipment-label" text-anchor="middle">GENERATOR SYNC BUS - 13.8 kV</text>
<text x="2000" y="310" class="annotation" text-anchor="middle">Woodward Paralleling | 6 x 4.0MW (N+1)</text>

<!-- Main Tie from Sync Bus to MV-SWBD A -->
<line x1="1250" y1="320" x2="1250" y2="340" class="power-line"/>
<line x1="1250" y1="340" x2="600" y2="340" class="power-line"/>
<line x1="600" y1="340" x2="600" y2="380" class="power-line"/>
<use href="#breaker-closed" x="600" y="360"/>
<text x="620" y="365" class="annotation" font-size="8">CB-MA</text>

<!-- MV-SWBD A -->
<rect x="480" y="400" width="240" height="100" class="mv-switchboard"/>
<line x1="500" y1="420" x2="700" y2="420" class="bus"/>
<text x="600" y="450" class="equipment-label" text-anchor="middle">MV-SWBD A</text>
<text x="600" y="470" class="annotation" text-anchor="middle">13.8kV | RING A</text>
<text x="600" y="485" class="rating" text-anchor="middle">4000A | 65kAIC</text>

<!-- Main Tie from Sync Bus to MV-SWBD B -->
<line x1="2750" y1="320" x2="2750" y2="340" class="power-line"/>
<line x1="2750" y1="340" x2="3400" y2="340" class="power-line"/>
<line x1="3400" y1="340" x2="3400" y2="380" class="power-line"/>
<use href="#breaker-closed" x="3400" y="360"/>
<text x="3420" y="365" class="annotation" font-size="8">CB-MB</text>

<!-- MV-SWBD B -->
<rect x="3280" y="400" width="240" height="100" class="mv-switchboard"/>
<line x1="3300" y1="420" x2="3500" y2="420" class="bus"/>
<text x="3400" y="450" class="equipment-label" text-anchor="middle">MV-SWBD B</text>
<text x="3400" y="470" class="annotation" text-anchor="middle">13.8kV | RING B</text>
<text x="3400" y="485" class="rating" text-anchor="middle">4000A | 65kAIC</text>

<!-- RING A -->
<text x="2000" y="580" class="equipment-label" text-anchor="middle" fill="#E74C3C">RING A - 13.8 kV (3 RMUs)</text>

<!-- Ring A path: MV-SWBD A -> RMU-A1 -> RMU-A2 -> RMU-A3 -> back to MV-SWBD A -->
<line x1="600" y1="500" x2="600" y2="600" class="power-line"/>
<use href="#breaker-closed" x="600" y="520"/>
<text x="620" y="525" class="annotation" font-size="8">CB-RA1</text>
<line x1="600" y1="600" x2="1100" y2="600" class="ring-bus"/>

<!-- RMU-A1 with incomer/outgoer -->
<rect x="1050" y="540" width="100" height="120" class="rmu-box"/>
<text x="1100" y="570" class="equipment-label" text-anchor="middle">RMU-A1</text>
<text x="1100" y="590" class="annotation" text-anchor="middle" font-size="9">630A SF6</text>

<!-- Incomer breaker -->
<use href="#breaker-closed" x="1075" y="600"/>
<text x="1075" y="585" class="annotation" font-size="7">IN</text>

<!-- Bus section inside RMU -->
<line x1="1075" y1="600" x2="1125" y2="600" stroke="black" stroke-width="3"/>
<circle cx="1100" cy="600" r="4" fill="black"/>

<!-- Outgoer breaker -->
<use href="#breaker-closed" x="1125" y="600"/>
<text x="1125" y="585" class="annotation" font-size="7">OUT</text>

<!-- Transformer feeder (tee-off) -->
<line x1="1100" y1="600" x2="1100" y2="630" class="power-line"/>
<use href="#breaker-closed" x="1100" y="615"/>
<text x="1120" y="620" class="annotation" font-size="7">TX</text>
<line x1="1100" y1="630" x2="1100" y2="660" class="power-line"/>

<!-- Ring continuation -->
<line x1="1125" y1="600" x2="2000" y2="600" class="ring-bus"/>

<!-- RMU-A2 with incomer/outgoer -->
<rect x="1950" y="540" width="100" height="120" class="rmu-box"/>
<text x="2000" y="570" class="equipment-label" text-anchor="middle">RMU-A2</text>
<text x="2000" y="590" class="annotation" text-anchor="middle" font-size="9">630A SF6</text>

<!-- Incomer breaker -->
<use href="#breaker-closed" x="1975" y="600"/>
<text x="1975" y="585" class="annotation" font-size="7">IN</text>

<!-- Bus section inside RMU -->
<line x1="1975" y1="600" x2="2025" y2="600" stroke="black" stroke-width="3"/>
<circle cx="2000" cy="600" r="4" fill="black"/>

<!-- Outgoer breaker -->
<use href="#breaker-closed" x="2025" y="600"/>
<text x="2025" y="585" class="annotation" font-size="7">OUT</text>

<!-- Transformer feeder (tee-off) -->
<line x1="2000" y1="600" x2="2000" y2="630" class="power-line"/>
<use href="#breaker-closed" x="2000" y="615"/>
<text x="2020" y="620" class="annotation" font-size="7">TX</text>
<line x1="2000" y1="630" x2="2000" y2="660" class="power-line"/>

<!-- Ring continuation -->
<line x1="2025" y1="600" x2="2900" y2="600" class="ring-bus"/>

<!-- RMU-A3 with incomer/outgoer -->
<rect x="2850" y="540" width="100" height="120" class="rmu-box"/>
<text x="2900" y="570" class="equipment-label" text-anchor="middle">RMU-A3</text>
<text x="2900" y="590" class="annotation" text-anchor="middle" font-size="9">630A SF6</text>

<!-- Incomer breaker -->
<use href="#breaker-closed" x="2875" y="600"/>
<text x="2875" y="585" class="annotation" font-size="7">IN</text>

<!-- Bus section inside RMU -->
<line x1="2875" y1="600" x2="2925" y2="600" stroke="black" stroke-width="3"/>
<circle cx="2900" cy="600" r="4" fill="black"/>

<!-- Outgoer breaker -->
<use href="#breaker-closed" x="2925" y="600"/>
<text x="2925" y="585" class="annotation" font-size="7">OUT</text>

<!-- Transformer feeder (tee-off) -->
<line x1="2900" y1="600" x2="2900" y2="630" class="power-line"/>
<use href="#breaker-closed" x="2900" y="615"/>
<text x="2920" y="620" class="annotation" font-size="7">TX</text>
<line x1="2900" y1="630" x2="2900" y2="660" class="power-line"/>

<!-- Ring continuation -->
<line x1="2925" y1="600" x2="600" y2="600" class="ring-bus"/>

<use href="#breaker-closed" x="600" y="600"/>
<text x="575" y="605" class="annotation" font-size="8">CB-RA2</text>
<line x1="600" y1="600" x2="600" y2="500" class="power-line"/>

<!-- RING B -->
<text x="2000" y="1480" class="equipment-label" text-anchor="middle" fill="#3498DB">RING B - 13.8 kV (3 RMUs)</text>

<!-- Ring B path: MV-SWBD B -> RMU-B1 -> RMU-B2 -> RMU-B3 -> back to MV-SWBD B -->
<line x1="3400" y1="500" x2="3400" y2="1500" class="power-line"/>
<use href="#breaker-closed" x="3400" y="520"/>
<text x="3420" y="525" class="annotation" font-size="8">CB-RB1</text>
<line x1="3400" y1="1500" x2="2900" y2="1500" class="ring-bus-b"/>

<!-- RMU-B6 with incomer/outgoer -->
<rect x="2850" y="1440" width="100" height="120" class="rmu-box"/>
<text x="2900" y="1470" class="equipment-label" text-anchor="middle">RMU-B3</text>
<text x="2900" y="1490" class="annotation" text-anchor="middle" font-size="9">630A SF6</text>

<!-- Incomer breaker -->
<use href="#breaker-closed" x="2925" y="1500"/>
<text x="2925" y="1485" class="annotation" font-size="7">IN</text>

<!-- Bus section inside RMU -->
<line x1="2875" y1="1500" x2="2925" y2="1500" stroke="black" stroke-width="3"/>
<circle cx="2900" cy="1500" r="4" fill="black"/>

<!-- Outgoer breaker -->
<use href="#breaker-closed" x="2875" y="1500"/>
<text x="2875" y="1485" class="annotation" font-size="7">OUT</text>

<!-- Transformer feeder (tee-off) -->
<line x1="2900" y1="1500" x2="2900" y2="1530" class="power-line"/>
<use href="#breaker-closed" x="2900" y="1515"/>
<text x="2920" y="1520" class="annotation" font-size="7">TX</text>
<line x1="2900" y1="1530" x2="2900" y2="1560" class="power-line"/>

<!-- Ring continuation -->
<line x1="2875" y1="1500" x2="2000" y2="1500" class="ring-bus-b"/>

<!-- RMU-B5 with incomer/outgoer -->
<rect x="1950" y="1440" width="100" height="120" class="rmu-box"/>
<text x="2000" y="1470" class="equipment-label" text-anchor="middle">RMU-B2</text>
<text x="2000" y="1490" class="annotation" text-anchor="middle" font-size="9">630A SF6</text>

<!-- Incomer breaker -->
<use href="#breaker-closed" x="2025" y="1500"/>
<text x="2025" y="1485" class="annotation" font-size="7">IN</text>

<!-- Bus section inside RMU -->
<line x1="1975" y1="1500" x2="2025" y2="1500" stroke="black" stroke-width="3"/>
<circle cx="2000" cy="1500" r="4" fill="black"/>

<!-- Outgoer breaker -->
<use href="#breaker-closed" x="1975" y="1500"/>
<text x="1975" y="1485" class="annotation" font-size="7">OUT</text>

<!-- Transformer feeder (tee-off) -->
<line x1="2000" y1="1500" x2="2000" y2="1530" class="power-line"/>
<use href="#breaker-closed" x="2000" y="1515"/>
<text x="2020" y="1520" class="annotation" font-size="7">TX</text>
<line x1="2000" y1="1530" x2="2000" y2="1560" class="power-line"/>

<!-- Ring continuation -->
<line x1="1975" y1="1500" x2="1100" y2="1500" class="ring-bus-b"/>

<!-- RMU-B4 with incomer/outgoer -->
<rect x="1050" y="1440" width="100" height="120" class="rmu-box"/>
<text x="1100" y="1470" class="equipment-label" text-anchor="middle">RMU-B1</text>
<text x="1100" y="1490" class="annotation" text-anchor="middle" font-size="9">630A SF6</text>

<!-- Incomer breaker -->
<use href="#breaker-closed" x="1125" y="1500"/>
<text x="1125" y="1485" class="annotation" font-size="7">IN</text>

<!-- Bus section inside RMU -->
<line x1="1075" y1="1500" x2="1125" y2="1500" stroke="black" stroke-width="3"/>
<circle cx="1100" cy="1500" r="4" fill="black"/>

<!-- Outgoer breaker -->
<use href="#breaker-closed" x="1075" y="1500"/>
<text x="1075" y="1485" class="annotation" font-size="7">OUT</text>

<!-- Transformer feeder (tee-off) -->
<line x1="1100" y1="1500" x2="1100" y2="1530" class="power-line"/>
<use href="#breaker-closed" x="1100" y="1515"/>
<text x="1120" y="1520" class="annotation" font-size="7">TX</text>
<line x1="1100" y1="1530" x2="1100" y2="1560" class="power-line"/>

<!-- Ring continuation -->
<line x1="1075" y1="1500" x2="3400" y2="1500" class="ring-bus-b"/>

<use href="#breaker-closed" x="3400" y="1500"/>
<text x="3375" y="1505" class="annotation" font-size="8">CB-RB2</text>
<line x1="3400" y1="1500" x2="3400" y2="500" class="power-line"/>

<!-- Transformer TX-1 (Ring A) -->
<circle cx="920" cy="710" r="35" fill="white" stroke="black" stroke-width="2"/>
<circle cx="920" cy="710" r="28" fill="none" stroke="black" stroke-width="1"/>
<text x="920" y="705" class="annotation" text-anchor="middle" font-size="10">TX-1</text>
<text x="920" y="718" class="rating" text-anchor="middle" font-size="9">3500kVA</text>
<text x="920" y="765" class="annotation" text-anchor="middle" font-size="8">13.8kV/480V</text>

<!-- TX to LV-SWBD -->
<line x1="920" y1="745" x2="920" y2="790" class="power-line"/>
<use href="#breaker-closed" x="920" y="770"/>
<text x="940" y="775" class="annotation" font-size="7">CB-L1</text>

<!-- LV-SWBD-1 -->
<rect x="860" y="810" width="120" height="80" class="lv-switchboard"/>
<line x1="870" y1="825" x2="970" y2="825" class="bus"/>
<text x="920" y="850" class="equipment-label" text-anchor="middle">LV-SWBD-1</text>
<text x="920" y="870" class="annotation" text-anchor="middle" font-size="9">480V | 2000A</text>

<!-- Distribution Panels downstream -->
<line x1="880" y1="825" x2="880" y2="910" class="power-line"/>
<use href="#breaker-closed" x="880" y="895"/>
<rect x="850" y="920" width="60" height="50" class="dist-panel"/>
<text x="880" y="940" class="annotation" text-anchor="middle" font-size="8">DP-1A</text>
<text x="880" y="955" class="annotation" text-anchor="middle" font-size="7">IT UPS</text>

<line x1="920" y1="825" x2="920" y2="910" class="power-line"/>
<use href="#breaker-closed" x="920" y="895"/>
<rect x="890" y="920" width="60" height="50" class="dist-panel"/>
<text x="920" y="940" class="annotation" text-anchor="middle" font-size="8">DP-1B</text>
<text x="920" y="955" class="annotation" text-anchor="middle" font-size="7">Mech UPS</text>

<line x1="960" y1="825" x2="960" y2="910" class="power-line"/>
<use href="#breaker-closed" x="960" y="895"/>
<rect x="930" y="920" width="60" height="50" class="dist-panel"/>
<text x="960" y="940" class="annotation" text-anchor="middle" font-size="8">DP-1C</text>
<text x="960" y="955" class="annotation" text-anchor="middle" font-size="7">Lighting</text>

<!-- Transformer TX-2 (Ring A) -->
<circle cx="1640" cy="710" r="35" fill="white" stroke="black" stroke-width="2"/>
<circle cx="1640" cy="710" r="28" fill="none" stroke="black" stroke-width="1"/>
<text x="1640" y="705" class="annotation" text-anchor="middle" font-size="10">TX-2</text>
<text x="1640" y="718" class="rating" text-anchor="middle" font-size="9">3500kVA</text>
<text x="1640" y="765" class="annotation" text-anchor="middle" font-size="8">13.8kV/480V</text>

<!-- TX to LV-SWBD -->
<line x1="1640" y1="745" x2="1640" y2="790" class="power-line"/>
<use href="#breaker-closed" x="1640" y="770"/>
<text x="1660" y="775" class="annotation" font-size="7">CB-L2</text>

<!-- LV-SWBD-2 -->
<rect x="1580" y="810" width="120" height="80" class="lv-switchboard"/>
<line x1="1590" y1="825" x2="1690" y2="825" class="bus"/>
<text x="1640" y="850" class="equipment-label" text-anchor="middle">LV-SWBD-2</text>
<text x="1640" y="870" class="annotation" text-anchor="middle" font-size="9">480V | 2000A</text>

<!-- Distribution Panels downstream -->
<line x1="1600" y1="825" x2="1600" y2="910" class="power-line"/>
<use href="#breaker-closed" x="1600" y="895"/>
<rect x="1570" y="920" width="60" height="50" class="dist-panel"/>
<text x="1600" y="940" class="annotation" text-anchor="middle" font-size="8">DP-2A</text>
<text x="1600" y="955" class="annotation" text-anchor="middle" font-size="7">IT UPS</text>

<line x1="1640" y1="825" x2="1640" y2="910" class="power-line"/>
<use href="#breaker-closed" x="1640" y="895"/>
<rect x="1610" y="920" width="60" height="50" class="dist-panel"/>
<text x="1640" y="940" class="annotation" text-anchor="middle" font-size="8">DP-2B</text>
<text x="1640" y="955" class="annotation" text-anchor="middle" font-size="7">Mech UPS</text>

<line x1="1680" y1="825" x2="1680" y2="910" class="power-line"/>
<use href="#breaker-closed" x="1680" y="895"/>
<rect x="1650" y="920" width="60" height="50" class="dist-panel"/>
<text x="1680" y="940" class="annotation" text-anchor="middle" font-size="8">DP-2C</text>
<text x="1680" y="955" class="annotation" text-anchor="middle" font-size="7">Lighting</text>

<!-- Transformer TX-3 (Ring A) -->
<circle cx="2360" cy="710" r="35" fill="white" stroke="black" stroke-width="2"/>
<circle cx="2360" cy="710" r="28" fill="none" stroke="black" stroke-width="1"/>
<text x="2360" y="705" class="annotation" text-anchor="middle" font-size="10">TX-3</text>
<text x="2360" y="718" class="rating" text-anchor="middle" font-size="9">3500kVA</text>
<text x="2360" y="765" class="annotation" text-anchor="middle" font-size="8">13.8kV/480V</text>

<!-- TX to LV-SWBD -->
<line x1="2360" y1="745" x2="2360" y2="790" class="power-line"/>
<use href="#breaker-closed" x="2360" y="770"/>
<text x="2380" y="775" class="annotation" font-size="7">CB-L3</text>

<!-- LV-SWBD-3 -->
<rect x="2300" y="810" width="120" height="80" class="lv-switchboard"/>
<line x1="2310" y1="825" x2="2410" y2="825" class="bus"/>
<text x="2360" y="850" class="equipment-label" text-anchor="middle">LV-SWBD-3</text>
<text x="2360" y="870" class="annotation" text-anchor="middle" font-size="9">480V | 2000A</text>

<!-- Distribution Panels downstream -->
<line x1="2320" y1="825" x2="2320" y2="910" class="power-line"/>
<use href="#breaker-closed" x="2320" y="895"/>
<rect x="2290" y="920" width="60" height="50" class="dist-panel"/>
<text x="2320" y="940" class="annotation" text-anchor="middle" font-size="8">DP-3A</text>
<text x="2320" y="955" class="annotation" text-anchor="middle" font-size="7">IT UPS</text>

<line x1="2360" y1="825" x2="2360" y2="910" class="power-line"/>
<use href="#breaker-closed" x="2360" y="895"/>
<rect x="2330" y="920" width="60" height="50" class="dist-panel"/>
<text x="2360" y="940" class="annotation" text-anchor="middle" font-size="8">DP-3B</text>
<text x="2360" y="955" class="annotation" text-anchor="middle" font-size="7">Mech UPS</text>

<line x1="2400" y1="825" x2="2400" y2="910" class="power-line"/>
<use href="#breaker-closed" x="2400" y="895"/>
<rect x="2370" y="920" width="60" height="50" class="dist-panel"/>
<text x="2400" y="940" class="annotation" text-anchor="middle" font-size="8">DP-3C</text>
<text x="2400" y="955" class="annotation" text-anchor="middle" font-size="7">Lighting</text>

<!-- Transformer TX-4 (Ring A) -->
<circle cx="3080" cy="710" r="35" fill="white" stroke="black" stroke-width="2"/>
<circle cx="3080" cy="710" r="28" fill="none" stroke="black" stroke-width="1"/>
<text x="3080" y="705" class="annotation" text-anchor="middle" font-size="10">TX-4</text>
<text x="3080" y="718" class="rating" text-anchor="middle" font-size="9">3500kVA</text>
<text x="3080" y="765" class="annotation" text-anchor="middle" font-size="8">13.8kV/480V</text>

<!-- TX to LV-SWBD -->
<line x1="3080" y1="745" x2="3080" y2="790" class="power-line"/>
<use href="#breaker-closed" x="3080" y="770"/>
<text x="3100" y="775" class="annotation" font-size="7">CB-L4</text>

<!-- LV-SWBD-4 -->
<rect x="3020" y="810" width="120" height="80" class="lv-switchboard"/>
<line x1="3030" y1="825" x2="3130" y2="825" class="bus"/>
<text x="3080" y="850" class="equipment-label" text-anchor="middle">LV-SWBD-4</text>
<text x="3080" y="870" class="annotation" text-anchor="middle" font-size="9">480V | 2000A</text>

<!-- Distribution Panels downstream -->
<line x1="3040" y1="825" x2="3040" y2="910" class="power-line"/>
<use href="#breaker-closed" x="3040" y="895"/>
<rect x="3010" y="920" width="60" height="50" class="dist-panel"/>
<text x="3040" y="940" class="annotation" text-anchor="middle" font-size="8">DP-4A</text>
<text x="3040" y="955" class="annotation" text-anchor="middle" font-size="7">IT UPS</text>

<line x1="3080" y1="825" x2="3080" y2="910" class="power-line"/>
<use href="#breaker-closed" x="3080" y="895"/>
<rect x="3050" y="920" width="60" height="50" class="dist-panel"/>
<text x="3080" y="940" class="annotation" text-anchor="middle" font-size="8">DP-4B</text>
<text x="3080" y="955" class="annotation" text-anchor="middle" font-size="7">Mech UPS</text>

<line x1="3120" y1="825" x2="3120" y2="910" class="power-line"/>
<use href="#breaker-closed" x="3120" y="895"/>
<rect x="3090" y="920" width="60" height="50" class="dist-panel"/>
<text x="3120" y="940" class="annotation" text-anchor="middle" font-size="8">DP-4C</text>
<text x="3120" y="955" class="annotation" text-anchor="middle" font-size="7">Lighting</text>

<!-- Transformer TX-5 (Ring B) -->
<circle cx="920" cy="1610" r="35" fill="white" stroke="black" stroke-width="2"/>
<circle cx="920" cy="1610" r="28" fill="none" stroke="black" stroke-width="1"/>
<text x="920" y="1605" class="annotation" text-anchor="middle" font-size="10">TX-5</text>
<text x="920" y="1618" class="rating" text-anchor="middle" font-size="9">3500kVA</text>
<text x="920" y="1665" class="annotation" text-anchor="middle" font-size="8">13.8kV/480V</text>

<!-- TX to LV-SWBD -->
<line x1="920" y1="1645" x2="920" y2="1690" class="power-line"/>
<use href="#breaker-closed" x="920" y="1670"/>
<text x="940" y="1675" class="annotation" font-size="7">CB-L5</text>

<!-- LV-SWBD-5 -->
<rect x="860" y="1710" width="120" height="80" class="lv-switchboard"/>
<line x1="870" y1="1725" x2="970" y2="1725" class="bus"/>
<text x="920" y="1750" class="equipment-label" text-anchor="middle">LV-SWBD-5</text>
<text x="920" y="1770" class="annotation" text-anchor="middle" font-size="9">480V | 2000A</text>

<!-- Distribution Panels downstream -->
<line x1="880" y1="1725" x2="880" y2="1810" class="power-line"/>
<use href="#breaker-closed" x="880" y="1795"/>
<rect x="850" y="1820" width="60" height="50" class="dist-panel"/>
<text x="880" y="1840" class="annotation" text-anchor="middle" font-size="8">DP-5A</text>
<text x="880" y="1855" class="annotation" text-anchor="middle" font-size="7">IT UPS</text>

<line x1="920" y1="1725" x2="920" y2="1810" class="power-line"/>
<use href="#breaker-closed" x="920" y="1795"/>
<rect x="890" y="1820" width="60" height="50" class="dist-panel"/>
<text x="920" y="1840" class="annotation" text-anchor="middle" font-size="8">DP-5B</text>
<text x="920" y="1855" class="annotation" text-anchor="middle" font-size="7">Mech UPS</text>

<line x1="960" y1="1725" x2="960" y2="1810" class="power-line"/>
<use href="#breaker-closed" x="960" y="1795"/>
<rect x="930" y="1820" width="60" height="50" class="dist-panel"/>
<text x="960" y="1840" class="annotation" text-anchor="middle" font-size="8">DP-5C</text>
<text x="960" y="1855" class="annotation" text-anchor="middle" font-size="7">Lighting</text>

<!-- Transformer TX-6 (Ring B) -->
<circle cx="1640" cy="1610" r="35" fill="white" stroke="black" stroke-width="2"/>
<circle cx="1640" cy="1610" r="28" fill="none" stroke="black" stroke-width="1"/>
<text x="1640" y="1605" class="annotation" text-anchor="middle" font-size="10">TX-6</text>
<text x="1640" y="1618" class="rating" text-anchor="middle" font-size="9">3500kVA</text>
<text x="1640" y="1665" class="annotation" text-anchor="middle" font-size="8">13.8kV/480V</text>

<!-- TX to LV-SWBD -->
<line x1="1640" y1="1645" x2="1640" y2="1690" class="power-line"/>
<use href="#breaker-closed" x="1640" y="1670"/>
<text x="1660" y="1675" class="annotation" font-size="7">CB-L6</text>

<!-- LV-SWBD-6 -->
<rect x="1580" y="1710" width="120" height="80" class="lv-switchboard"/>
<line x1="1590" y1="1725" x2="1690" y2="1725" class="bus"/>
<text x="1640" y="1750" class="equipment-label" text-anchor="middle">LV-SWBD-6</text>
<text x="1640" y="1770" class="annotation" text-anchor="middle" font-size="9">480V | 2000A</text>

<!-- Distribution Panels downstream -->
<line x1="1600" y1="1725" x2="1600" y2="1810" class="power-line"/>
<use href="#breaker-closed" x="1600" y="1795"/>
<rect x="1570" y="1820" width="60" height="50" class="dist-panel"/>
<text x="1600" y="1840" class="annotation" text-anchor="middle" font-size="8">DP-6A</text>
<text x="1600" y="1855" class="annotation" text-anchor="middle" font-size="7">IT UPS</text>

<line x1="1640" y1="1725" x2="1640" y2="1810" class="power-line"/>
<use href="#breaker-closed" x="1640" y="1795"/>
<rect x="1610" y="1820" width="60" height="50" class="dist-panel"/>
<text x="1640" y="1840" class="annotation" text-anchor="middle" font-size="8">DP-6B</text>
<text x="1640" y="1855" class="annotation" text-anchor="middle" font-size="7">Mech UPS</text>

<line x1="1680" y1="1725" x2="1680" y2="1810" class="power-line"/>
<use href="#breaker-closed" x="1680" y="1795"/>
<rect x="1650" y="1820" width="60" height="50" class="dist-panel"/>
<text x="1680" y="1840" class="annotation" text-anchor="middle" font-size="8">DP-6C</text>
<text x="1680" y="1855" class="annotation" text-anchor="middle" font-size="7">Lighting</text>

<!-- Transformer TX-7 (Ring B) -->
<circle cx="2360" cy="1610" r="35" fill="white" stroke="black" stroke-width="2"/>
<circle cx="2360" cy="1610" r="28" fill="none" stroke="black" stroke-width="1"/>
<text x="2360" y="1605" class="annotation" text-anchor="middle" font-size="10">TX-7</text>
<text x="2360" y="1618" class="rating" text-anchor="middle" font-size="9">3500kVA</text>
<text x="2360" y="1665" class="annotation" text-anchor="middle" font-size="8">13.8kV/480V</text>

<!-- TX to LV-SWBD -->
<line x1="2360" y1="1645" x2="2360" y2="1690" class="power-line"/>
<use href="#breaker-closed" x="2360" y="1670"/>
<text x="2380" y="1675" class="annotation" font-size="7">CB-L7</text>

<!-- LV-SWBD-7 -->
<rect x="2300" y="1710" width="120" height="80" class="lv-switchboard"/>
<line x1="2310" y1="1725" x2="2410" y2="1725" class="bus"/>
<text x="2360" y="1750" class="equipment-label" text-anchor="middle">LV-SWBD-7</text>
<text x="2360" y="1770" class="annotation" text-anchor="middle" font-size="9">480V | 2000A</text>

<!-- Distribution Panels downstream -->
<line x1="2320" y1="1725" x2="2320" y2="1810" class="power-line"/>
<use href="#breaker-closed" x="2320" y="1795"/>
<rect x="2290" y="1820" width="60" height="50" class="dist-panel"/>
<text x="2320" y="1840" class="annotation" text-anchor="middle" font-size="8">DP-7A</text>
<text x="2320" y="1855" class="annotation" text-anchor="middle" font-size="7">IT UPS</text>

<line x1="2360" y1="1725" x2="2360" y2="1810" class="power-line"/>
<use href="#breaker-closed" x="2360" y="1795"/>
<rect x="2330" y="1820" width="60" height="50" class="dist-panel"/>
<text x="2360" y="1840" class="annotation" text-anchor="middle" font-size="8">DP-7B</text>
<text x="2360" y="1855" class="annotation" text-anchor="middle" font-size="7">Mech UPS</text>

<line x1="2400" y1="1725" x2="2400" y2="1810" class="power-line"/>
<use href="#breaker-closed" x="2400" y="1795"/>
<rect x="2370" y="1820" width="60" height="50" class="dist-panel"/>
<text x="2400" y="1840" class="annotation" text-anchor="middle" font-size="8">DP-7C</text>
<text x="2400" y="1855" class="annotation" text-anchor="middle" font-size="7">Lighting</text>

<!-- Transformer TX-8 (Ring B) -->
<circle cx="3080" cy="1610" r="35" fill="white" stroke="black" stroke-width="2"/>
<circle cx="3080" cy="1610" r="28" fill="none" stroke="black" stroke-width="1"/>
<text x="3080" y="1605" class="annotation" text-anchor="middle" font-size="10">TX-8</text>
<text x="3080" y="1618" class="rating" text-anchor="middle" font-size="9">3500kVA</text>
<text x="3080" y="1665" class="annotation" text-anchor="middle" font-size="8">13.8kV/480V</text>

<!-- TX to LV-SWBD -->
<line x1="3080" y1="1645" x2="3080" y2="1690" class="power-line"/>
<use href="#breaker-closed" x="3080" y="1670"/>
<text x="3100" y="1675" class="annotation" font-size="7">CB-L8</text>

<!-- LV-SWBD-8 -->
<rect x="3020" y="1710" width="120" height="80" class="lv-switchboard"/>
<line x1="3030" y1="1725" x2="3130" y2="1725" class="bus"/>
<text x="3080" y="1750" class="equipment-label" text-anchor="middle">LV-SWBD-8</text>
<text x="3080" y="1770" class="annotation" text-anchor="middle" font-size="9">480V | 2000A</text>

<!-- Distribution Panels downstream -->
<line x1="3040" y1="1725" x2="3040" y2="1810" class="power-line"/>
<use href="#breaker-closed" x="3040" y="1795"/>
<rect x="3010" y="1820" width="60" height="50" class="dist-panel"/>
<text x="3040" y="1840" class="annotation" text-anchor="middle" font-size="8">DP-8A</text>
<text x="3040" y="1855" class="annotation" text-anchor="middle" font-size="7">IT UPS</text>

<line x1="3080" y1="1725" x2="3080" y2="1810" class="power-line"/>
<use href="#breaker-closed" x="3080" y="1795"/>
<rect x="3050" y="1820" width="60" height="50" class="dist-panel"/>
<text x="3080" y="1840" class="annotation" text-anchor="middle" font-size="8">DP-8B</text>
<text x="3080" y="1855" class="annotation" text-anchor="middle" font-size="7">Mech UPS</text>

<line x1="3120" y1="1725" x2="3120" y2="1810" class="power-line"/>
<use href="#breaker-closed" x="3120" y="1795"/>
<rect x="3090" y="1820" width="60" height="50" class="dist-panel"/>
<text x="3120" y="1840" class="annotation" text-anchor="middle" font-size="8">DP-8C</text>
<text x="3120" y="1855" class="annotation" text-anchor="middle" font-size="7">Lighting</text>

<text x="300" y="1950" class="equipment-label">IT UPS SYSTEM (N+1):</text>

<rect x="300" y="1960" width="70" height="80" class="ups-module"/>
<text x="335" y="1985" class="annotation" text-anchor="middle" font-size="9">IT-UPS-1</text>
<text x="335" y="2005" class="rating" text-anchor="middle" font-size="8">1250kVA</text>
<text x="335" y="2020" class="annotation" text-anchor="middle" font-size="7">Li-Ion</text>
<text x="335" y="2032" class="annotation" text-anchor="middle" font-size="7">5-min</text>

<rect x="390" y="1960" width="70" height="80" class="ups-module"/>
<text x="425" y="1985" class="annotation" text-anchor="middle" font-size="9">IT-UPS-2</text>
<text x="425" y="2005" class="rating" text-anchor="middle" font-size="8">1250kVA</text>
<text x="425" y="2020" class="annotation" text-anchor="middle" font-size="7">Li-Ion</text>
<text x="425" y="2032" class="annotation" text-anchor="middle" font-size="7">5-min</text>

<rect x="480" y="1960" width="70" height="80" class="ups-module"/>
<text x="515" y="1985" class="annotation" text-anchor="middle" font-size="9">IT-UPS-3</text>
<text x="515" y="2005" class="rating" text-anchor="middle" font-size="8">1250kVA</text>
<text x="515" y="2020" class="annotation" text-anchor="middle" font-size="7">Li-Ion</text>
<text x="515" y="2032" class="annotation" text-anchor="middle" font-size="7">5-min</text>

<rect x="570" y="1960" width="70" height="80" class="ups-module"/>
<text x="605" y="1985" class="annotation" text-anchor="middle" font-size="9">IT-UPS-4</text>
<text x="605" y="2005" class="rating" text-anchor="middle" font-size="8">1250kVA</text>
<text x="605" y="2020" class="annotation" text-anchor="middle" font-size="7">Li-Ion</text>
<text x="605" y="2032" class="annotation" text-anchor="middle" font-size="7">5-min</text>

<rect x="660" y="1960" width="70" height="80" class="ups-module"/>
<text x="695" y="1985" class="annotation" text-anchor="middle" font-size="9">IT-UPS-5</text>
<text x="695" y="2005" class="rating" text-anchor="middle" font-size="8">1250kVA</text>
<text x="695" y="2020" class="annotation" text-anchor="middle" font-size="7">Li-Ion</text>
<text x="695" y="2032" class="annotation" text-anchor="middle" font-size="7">5-min</text>

<text x="850" y="1950" class="equipment-label">MECHANICAL UPS SYSTEM (N+1):</text>

<rect x="850" y="1960" width="70" height="80" class="ups-module"/>
<text x="885" y="1985" class="annotation" text-anchor="middle" font-size="9">M-UPS-1</text>
<text x="885" y="2005" class="rating" text-anchor="middle" font-size="8">250kW</text>
<text x="885" y="2020" class="annotation" text-anchor="middle" font-size="7">Static</text>
<text x="885" y="2032" class="annotation" text-anchor="middle" font-size="7">Mech Ld</text>

<rect x="940" y="1960" width="70" height="80" class="ups-module"/>
<text x="975" y="1985" class="annotation" text-anchor="middle" font-size="9">M-UPS-2</text>
<text x="975" y="2005" class="rating" text-anchor="middle" font-size="8">250kW</text>
<text x="975" y="2020" class="annotation" text-anchor="middle" font-size="7">Static</text>
<text x="975" y="2032" class="annotation" text-anchor="middle" font-size="7">Mech Ld</text>

<rect x="1030" y="1960" width="70" height="80" class="ups-module"/>
<text x="1065" y="1985" class="annotation" text-anchor="middle" font-size="9">M-UPS-3</text>
<text x="1065" y="2005" class="rating" text-anchor="middle" font-size="8">250kW</text>
<text x="1065" y="2020" class="annotation" text-anchor="middle" font-size="7">Static</text>
<text x="1065" y="2032" class="annotation" text-anchor="middle" font-size="7">Mech Ld</text>

<rect x="1120" y="1960" width="70" height="80" class="ups-module"/>
<text x="1155" y="1985" class="annotation" text-anchor="middle" font-size="9">M-UPS-4</text>
<text x="1155" y="2005" class="rating" text-anchor="middle" font-size="8">250kW</text>
<text x="1155" y="2020" class="annotation" text-anchor="middle" font-size="7">Static</text>
<text x="1155" y="2032" class="annotation" text-anchor="middle" font-size="7">Mech Ld</text>

<rect x="1210" y="1960" width="70" height="80" class="ups-module"/>
<text x="1245" y="1985" class="annotation" text-anchor="middle" font-size="9">M-UPS-5</text>
<text x="1245" y="2005" class="rating" text-anchor="middle" font-size="8">250kW</text>
<text x="1245" y="2020" class="annotation" text-anchor="middle" font-size="7">Static</text>
<text x="1245" y="2032" class="annotation" text-anchor="middle" font-size="7">Mech Ld</text>

<rect x="1300" y="1960" width="70" height="80" class="ups-module"/>
<text x="1335" y="1985" class="annotation" text-anchor="middle" font-size="9">M-UPS-6</text>
<text x="1335" y="2005" class="rating" text-anchor="middle" font-size="8">250kW</text>
<text x="1335" y="2020" class="annotation" text-anchor="middle" font-size="7">Static</text>
<text x="1335" y="2032" class="annotation" text-anchor="middle" font-size="7">Mech Ld</text>

<rect x="1390" y="1960" width="70" height="80" class="ups-module"/>
<text x="1425" y="1985" class="annotation" text-anchor="middle" font-size="9">M-UPS-7</text>
<text x="1425" y="2005" class="rating" text-anchor="middle" font-size="8">250kW</text>
<text x="1425" y="2020" class="annotation" text-anchor="middle" font-size="7">Static</text>
<text x="1425" y="2032" class="annotation" text-anchor="middle" font-size="7">Mech Ld</text>

<rect x="1480" y="1960" width="70" height="80" class="ups-module"/>
<text x="1515" y="1985" class="annotation" text-anchor="middle" font-size="9">M-UPS-8</text>
<text x="1515" y="2005" class="rating" text-anchor="middle" font-size="8">250kW</text>
<text x="1515" y="2020" class="annotation" text-anchor="middle" font-size="7">Static</text>
<text x="1515" y="2032" class="annotation" text-anchor="middle" font-size="7">Mech Ld</text>

<!-- Notes -->
<text x="50" y="2110" class="equipment-label">NOTES:</text>
<text x="50" y="2130" class="annotation">1. Ring topology: Each RMU shows INCOMER and OUTGOER breakers with transformer feeder tee-off</text>
<text x="50" y="2150" class="annotation">2. Each LV-SWBD feeds 3 distribution panels: IT UPS loads, Mechanical UPS loads, and Lighting/Receptacles</text>
<text x="50" y="2170" class="annotation">3. All breaker positions shown at each connection point</text>
<text x="50" y="2190" class="annotation">4. Ring A (red) and Ring B (blue) operate independently for N path redundancy</text>
<text x="50" y="2210" class="annotation">5. Individual UPS modules shown: 5 IT UPS modules + 8 Mechanical UPS modules</text>

</svg>