<svg xmlns="http://www.w3.org/2000/svg" viewBox="-10 -10 51 71" fill="#fff" fill-rule="evenodd" stroke="#000" stroke-linecap="round" stroke-linejoin="round" font-family="Roboto" font-size="14" text-anchor="middle"><style><![CDATA[.B{fill:#000}.C{text-anchor:end}.D{font-size:10px}.E{stroke:none}.F{stroke-width:.5}]]></style><use href="#A" x=".5" y=".5"/><symbol id="A" overflow="visible"><circle cx="20" cy="25" r="10" class="F"/><path d="M14.666 19.667h10.667V21H14.666z" class="B F"/><path d="M14 26.167C15.333 33 24.667 33 26 26.334" fill="none" class="F"/><path d="M20 0v19.75" fill="none" class="F"/><path d="M20 50V31.25" fill="none" class="F"/><g transform="matrix(-.5 .866025 -.866025 -.5 10.310073 15.22682)"><path d="M0 2.588L1.004 0l1.004 2.588z" fill-opacity=".99" class="B F"/></g><g transform="matrix(.866025 .5 -.5 .866025 5.304632 13.50005)"><path d="M0 0h2.823" fill="none" class="F"/></g><g transform="matrix(-.5 .866025 -.866025 -.5 10.005273 18.70912)"><path d="M0 2.588L1.004 0l1.004 2.588z" fill-opacity=".99" class="B F"/></g><g transform="matrix(.866025 .5 -.5 .866025 5.000032 16.98235)"><path d="M0 0h2.823" fill="none" class="F"/></g></symbol></svg>